<svg xmlns="http://www.w3.org/2000/svg" width="1232.5" height="97" viewBox="0 0 1232.5 97">
  <g id="Grupo_5512" data-name="Grupo 5512" transform="translate(-104 -667.5)">
    <path id="Trazado_28134" data-name="Trazado 28134" d="M0,0H1232.5" transform="translate(104 717.5)" fill="none" stroke="#7c7c7c" stroke-width="2"/>
    <g id="Elipse_15123" data-name="Elipse 15123" transform="translate(472 704)" fill="#f0f0f0" stroke="#7c7c7c" stroke-width="3">
      <circle cx="13" cy="13" r="13" stroke="none"/>
      <circle cx="13" cy="13" r="11.5" fill="none"/>
    </g>
    <g id="Elipse_15124" data-name="Elipse 15124" transform="translate(706 704)" fill="#f0f0f0" stroke="#7c7c7c" stroke-width="2">
      <circle cx="13" cy="13" r="13" stroke="none"/>
      <circle cx="13" cy="13" r="12" fill="none"/>
    </g>
    <g id="Elipse_15125" data-name="Elipse 15125" transform="translate(940 704)" fill="#f0f0f0" stroke="#7c7c7c" stroke-width="2">
      <circle cx="13" cy="13" r="13" stroke="none"/>
      <circle cx="13" cy="13" r="12" fill="none"/>
    </g>
    <g id="Elipse_15127" data-name="Elipse 15127" transform="translate(1174 704)" fill="#f0f0f0" stroke="#7c7c7c" stroke-width="2">
      <circle cx="13" cy="13" r="13" stroke="none"/>
      <circle cx="13" cy="13" r="12" fill="none"/>
    </g>
    <g id="Componente_3607_1" data-name="Componente 3607 – 1" transform="translate(419 669)">
      <g id="Componente_3606_4" data-name="Componente 3606 – 4" transform="translate(75)">
        <text id="Resultados_del_Proceso_de_Selección" data-name="Resultados del 
Proceso de Selección" transform="translate(0 12)" fill="#4a4a4a" font-size="12" font-family="Montserrat-Regular, Montserrat" opacity="0.7"><tspan x="0" y="0">RESULTADOS DEL </tspan><tspan x="0" y="12">PROCESO DE SELECCIÓN</tspan></text>
      </g>
      <g id="Componente_3605_8" data-name="Componente 3605 – 8" transform="translate(0 4)">
        <text id="FEB_28" data-name="FEB 28" transform="translate(28 15)" fill="#4a4a4a" font-size="16" font-family="Montserrat-Medium, Montserrat" font-weight="500" opacity="0.7"><tspan x="-28.392" y="0">FEB 28</tspan></text>
      </g>
      <line id="Línea_490" data-name="Línea 490" y2="25" transform="translate(65.5 1.5)" fill="none" stroke="#7c7c7c" stroke-width="1"/>
    </g>
    <g id="Componente_3607_2" data-name="Componente 3607 – 2" transform="translate(193 737)">
      <g id="Componente_3606_4-2" data-name="Componente 3606 – 4" transform="translate(66)">
        <text id="Resultados_de_Puntajes_PDT_Inicio_Etapa_de_Postulaciones" data-name="Resultados de Puntajes PDT
Inicio Etapa de Postulaciones" transform="translate(0 12)" fill="#e00d34" font-size="12" font-family="Montserrat-Bold, Montserrat" font-weight="700" opacity="0.7"><tspan x="0" y="0">RESULTADOS DE PUNTAJES PDT</tspan><tspan x="0" y="12">INICIO ETAPA DE POSTULACIONES</tspan></text>
      </g>
      <g id="Componente_3605_8-2" data-name="Componente 3605 – 8" transform="translate(0 3)">
        <text id="FEB_11_" data-name="FEB 11  " transform="translate(28 16)" fill="#e00d34" font-size="16" font-family="Montserrat-Bold, Montserrat" font-weight="700" opacity="0.7"><tspan x="-29.664" y="0" xml:space="preserve">FEB 11  </tspan></text>
      </g>
      <line id="Línea_490-2" data-name="Línea 490" y2="25" transform="translate(57.5 1.5)" fill="none" stroke="#e00d34" stroke-width="2"/>
    </g>
    <g id="Componente_3607_3" data-name="Componente 3607 – 3" transform="translate(649 736.5)">
      <g id="Componente_3606_4-3" data-name="Componente 3606 – 4" transform="translate(76)">
        <text id="Proceso_de_Matrícula" data-name="Proceso 
de Matrícula" transform="translate(0 12)" fill="#4a4a4a" font-size="12" font-family="Montserrat-Regular, Montserrat" opacity="0.7"><tspan x="0" y="0">PROCESO </tspan><tspan x="0" y="12">DE MATRÍCULA</tspan></text>
      </g>
      <g id="Componente_3605_8-3" data-name="Componente 3605 – 8" transform="translate(0 5)">
        <text id="MAR_01" data-name="MAR 01" transform="translate(30 15)" fill="#4a4a4a" font-size="16" font-family="Montserrat-Medium, Montserrat" font-weight="500" opacity="0.7"><tspan x="-29.736" y="0">MAR 01</tspan></text>
      </g>
      <line id="Línea_490-3" data-name="Línea 490" y2="25" transform="translate(69.5 2.5)" fill="none" stroke="#7c7c7c" stroke-width="1"/>
    </g>
    <g id="Componente_3607_4" data-name="Componente 3607 – 4" transform="translate(880 667.5)">
      <g id="Componente_3606_4-4" data-name="Componente 3606 – 4" transform="translate(81)">
        <text id="Inicio_de_Clases" data-name="Inicio 
de Clases" transform="translate(0 12)" fill="#4a4a4a" font-size="12" font-family="Montserrat-Regular, Montserrat" opacity="0.7"><tspan x="0" y="0">INICIO </tspan><tspan x="0" y="12">DE CLASES</tspan></text>
      </g>
      <g id="Componente_3605_8-4" data-name="Componente 3605 – 8" transform="translate(0 5)">
        <text id="MAR_08" data-name="MAR 08" transform="translate(32 15)" fill="#4a4a4a" font-size="16" font-family="Montserrat-Medium, Montserrat" font-weight="500" opacity="0.7"><tspan x="-31.952" y="0">MAR 08</tspan></text>
      </g>
      <line id="Línea_490-4" data-name="Línea 490" y2="25" transform="translate(73.5 2.5)" fill="none" stroke="#7c7c7c" stroke-width="1"/>
    </g>
    <g id="Componente_3607_5" data-name="Componente 3607 – 5" transform="translate(1121 737)">
      <g id="Componente_3606_4-5" data-name="Componente 3606 – 4" transform="translate(74)">
        <text id="Cierre_periodo_de_Retractro" data-name="Cierre periodo 
de Retractro" transform="translate(0 12)" fill="#4a4a4a" font-size="12" font-family="Montserrat-Regular, Montserrat" opacity="0.7"><tspan x="0" y="0">CIERRE PERIODO </tspan><tspan x="0" y="12">DE RETRACTRO</tspan></text>
      </g>
      <g id="Componente_3605_8-5" data-name="Componente 3605 – 8" transform="translate(0 5)">
        <text id="MAR_10" data-name="MAR 10" transform="translate(30 15)" fill="#4a4a4a" font-size="16" font-family="Montserrat-Medium, Montserrat" font-weight="500" opacity="0.7"><tspan x="-29.76" y="0">MAR 10</tspan></text>
      </g>
      <line id="Línea_490-5" data-name="Línea 490" y2="25" transform="translate(66.5 2.5)" fill="none" stroke="#7c7c7c" stroke-width="1"/>
    </g>
    <line id="Línea_489" data-name="Línea 489" x2="134.5" transform="translate(104 717.5)" fill="none" stroke="#e00d34" stroke-width="2"/>
    <g id="Trazado_28133" data-name="Trazado 28133" transform="translate(238 704)" fill="#fff">
      <path d="M 13 24.5 C 9.928239822387695 24.5 7.040339946746826 23.30378913879395 4.868269920349121 21.13172912597656 C 2.696209907531738 18.95965957641602 1.5 16.0717601776123 1.5 13 C 1.5 9.928239822387695 2.696209907531738 7.040339946746826 4.868269920349121 4.868269920349121 C 7.040339946746826 2.696209907531738 9.928239822387695 1.5 13 1.5 C 16.0717601776123 1.5 18.95965957641602 2.696209907531738 21.13172912597656 4.868269920349121 C 23.30378913879395 7.040339946746826 24.5 9.928239822387695 24.5 13 C 24.5 16.0717601776123 23.30378913879395 18.95965957641602 21.13172912597656 21.13172912597656 C 18.95965957641602 23.30378913879395 16.0717601776123 24.5 13 24.5 Z" stroke="none"/>
      <path d="M 13 3 C 7.485979080200195 3 3 7.485979080200195 3 13 C 3 18.51401901245117 7.485979080200195 23 13 23 C 18.51401901245117 23 23 18.51401901245117 23 13 C 23 7.485979080200195 18.51401901245117 3 13 3 M 13 0 C 20.1796989440918 0 26 5.82029914855957 26 13 C 26 20.1796989440918 20.1796989440918 26 13 26 C 5.82029914855957 26 0 20.1796989440918 0 13 C 0 5.82029914855957 5.82029914855957 0 13 0 Z" stroke="none" fill="#e00d34"/>
    </g>
    <circle id="Elipse_15128" data-name="Elipse 15128" cx="6" cy="6" r="6" transform="translate(245 711)" fill="#e00d34"/>
  </g>
</svg>
