<svg xmlns="http://www.w3.org/2000/svg" width="55.719" height="49.865" viewBox="0 0 55.719 49.865">
  <g id="noun_chat_1101523" transform="translate(-10 -14.2)">
    <g id="Grupo_5433" data-name="Grupo 5433" transform="translate(11 15.2)">
      <path id="Trazado_28091" data-name="Trazado 28091" d="M13.755,53.079h16.8l5.854,9.229a1.622,1.622,0,0,0,1.446.758,1.705,1.705,0,0,0,1.446-.758l5.854-9.229h16.8a2.763,2.763,0,0,0,2.755-2.755V17.955A2.763,2.763,0,0,0,61.964,15.2H13.755A2.763,2.763,0,0,0,11,17.955V50.324A2.763,2.763,0,0,0,13.755,53.079ZM12.377,17.955a1.381,1.381,0,0,1,1.377-1.377H61.964a1.381,1.381,0,0,1,1.377,1.377V50.324A1.381,1.381,0,0,1,61.964,51.7H44.746a.613.613,0,0,0-.551.344l-6.061,9.573a.344.344,0,0,1-.551,0l-6.061-9.573a.7.7,0,0,0-.551-.344H13.755a1.381,1.381,0,0,1-1.377-1.377Z" transform="translate(-11 -15.2)" fill="#fff" stroke="#fff" stroke-width="2"/>
      <path id="Trazado_28092" data-name="Trazado 28092" d="M26.821,45.642A4.821,4.821,0,1,0,22,40.821,4.791,4.791,0,0,0,26.821,45.642Zm0-8.264a3.444,3.444,0,1,1-3.444,3.444A3.41,3.41,0,0,1,26.821,37.377Z" transform="translate(-14.424 -21.675)" fill="#fff" stroke="#fff" stroke-width="2"/>
      <path id="Trazado_28093" data-name="Trazado 28093" d="M47.821,45.642A4.821,4.821,0,1,0,43,40.821,4.791,4.791,0,0,0,47.821,45.642Zm0-8.264a3.444,3.444,0,1,1-3.444,3.444A3.41,3.41,0,0,1,47.821,37.377Z" transform="translate(-20.962 -21.675)" fill="#fff" stroke="#fff" stroke-width="2"/>
      <path id="Trazado_28094" data-name="Trazado 28094" d="M68.821,45.642A4.821,4.821,0,1,0,64,40.821,4.791,4.791,0,0,0,68.821,45.642Zm0-8.264a3.444,3.444,0,1,1-3.444,3.444A3.41,3.41,0,0,1,68.821,37.377Z" transform="translate(-27.499 -21.675)" fill="#fff" stroke="#fff" stroke-width="2"/>
    </g>
  </g>
</svg>
